<?xml version="1.0" standalone="no"?>
<!DOCTYPE svg PUBLIC "-//W3C//DTD SVG 20010904//EN"
 "http://www.w3.org/TR/2001/REC-SVG-20010904/DTD/svg10.dtd">
<svg version="1.0" xmlns="http://www.w3.org/2000/svg"
 width="249.000000pt" height="249.000000pt" viewBox="0 0 249.000000 249.000000"
 preserveAspectRatio="xMidYMid meet">
<metadata>
Created by potrace 1.11, written by Peter Selinger 2001-2013
</metadata>
<g transform="translate(0.000000,249.000000) scale(0.100000,-0.100000)"
fill="#000000" stroke="none">
<path d="M125 1415 c0 -387 4 -607 10 -613 6 -5 114 -76 240 -157 127 -82 240
-154 252 -162 20 -13 38 -3 275 148 139 89 257 166 261 170 9 7 13 1206 4
1215 -2 3 -40 -16 -83 -42 -44 -26 -95 -56 -114 -66 -168 -95 -269 -154 -291
-169 l-25 -18 -185 106 c-101 58 -204 117 -229 131 -25 14 -58 34 -75 44 -16
10 -32 18 -35 18 -3 0 -5 -272 -5 -605z"/>
<path d="M1349 2003 c0 -25 0 -1154 0 -1178 1 -15 38 -44 139 -108 75 -49 193
-124 260 -168 l124 -80 101 65 c56 36 174 112 262 169 l160 103 0 607 c0 334
-2 607 -4 607 -2 0 -50 -26 -105 -59 -56 -32 -117 -68 -136 -78 -19 -11 -90
-51 -156 -90 l-122 -70 -173 100 c-96 55 -187 108 -204 117 -16 9 -54 31 -83
49 -62 36 -62 36 -63 14z"/>
</g>
</svg>
